<?xml version="1.0" encoding="UTF-8"?>
<svg xmlns="http://www.w3.org/2000/svg" viewBox="0 0 1200 630" width="1200" height="630">
  <defs>
    <linearGradient id="g87061" x1="91.45187862775208%" y1="22.040354826462654%" x2="8.54812137224792%" y2="77.95964517353735%">
      <stop offset="0%" stop-color="#DC2626"/>
      <stop offset="100%" stop-color="#B91C1C"/>
    </linearGradient>
  </defs>
  <rect width="1200" height="630" fill="url(#g87061)"/>
  <path d="M 80 336.77382877096534 L 80 336.77382877096534 L 88 336.77382877096534 L 96 336.77382877096534 L 104 336.77382877096534 L 112 336.77382877096534 L 120 336.77382877096534 L 128 336.77382877096534 L 136 336.77382877096534 L 144 336.77382877096534 L 152 336.77382877096534 L 160 336.77382877096534 L 168 336.77382877096534 L 176 336.77382877096534 L 184 336.77382877096534 L 192 336.77382877096534 L 200 336.77382877096534 L 208 336.77382877096534 L 216 336.77382877096534 L 224 336.77382877096534 L 232 336.77382877096534 L 240 336.77382877096534 L 248 336.77382877096534 L 256 298.9947842509254 L 264 262.67089514493466 L 272 289.2107765232085 L 280 336.77382877096534 L 288 336.77382877096534 L 296 336.77382877096534 L 304 336.77382877096534 L 312 336.77382877096534 L 320 336.77382877096534 L 328 336.77382877096534 L 336 336.77382877096534 L 344 336.77382877096534 L 352 336.77382877096534 L 360 336.77382877096534 L 368 336.77382877096534 L 376 336.77382877096534 L 384 336.77382877096534 L 392 336.77382877096534 L 400 336.77382877096534 L 408 336.77382877096534 L 416 336.77382877096534 L 424 336.77382877096534 L 432 336.77382877096534 L 440 336.77382877096534 L 448 336.77382877096534 L 456 336.77382877096534 L 464 336.77382877096534 L 472 336.77382877096534 L 480 336.77382877096534 L 488 336.77382877096534 L 496 336.77382877096534 L 504 299.19204905757556 L 512 261.19538652760303 L 520 266.01591618838137 L 528 322.49385317797044 L 536 336.77382877096534 L 544 336.77382877096534 L 552 336.77382877096534 L 560 336.77382877096534 L 568 336.77382877096534 L 576 336.77382877096534 L 584 336.77382877096534 L 592 336.77382877096534 L 600 336.77382877096534 L 608 336.77382877096534 L 616 336.77382877096534 L 624 336.77382877096534 L 632 336.77382877096534 L 640 336.77382877096534 L 648 336.77382877096534 L 656 336.77382877096534 L 664 336.77382877096534 L 672 336.77382877096534 L 680 336.77382877096534 L 688 336.77382877096534 L 696 336.77382877096534 L 704 336.77382877096534 L 712 336.77382877096534 L 720 336.77382877096534 L 728 336.77382877096534 L 736 336.77382877096534 L 744 336.77382877096534 L 752 317.2679042403468 L 760 278.53926770002556 L 768 264.8754182753769 L 776 303.7710462780409 L 784 336.77382877096534 L 792 336.77382877096534 L 800 336.77382877096534 L 808 336.77382877096534 L 816 336.77382877096534 L 824 336.77382877096534 L 832 336.77382877096534 L 840 336.77382877096534 L 848 336.77382877096534 L 856 336.77382877096534 L 864 336.77382877096534 L 872 336.77382877096534 L 880 336.77382877096534 L 888 336.77382877096534 L 896 336.77382877096534 L 904 336.77382877096534 L 912 336.77382877096534 L 920 336.77382877096534 L 928 336.77382877096534 L 936 336.77382877096534 L 944 336.77382877096534 L 952 336.77382877096534 L 960 336.77382877096534 L 968 336.77382877096534 L 976 336.77382877096534 L 984 336.77382877096534 L 992 336.77382877096534 L 1000 336.77382877096534 L 1008 282.5512780731581 L 1016 255.49250584268643 L 1024 283.2753996913757 L 1032 336.77382877096534 L 1040 336.77382877096534 L 1048 336.77382877096534 L 1056 336.77382877096534 L 1064 336.77382877096534 L 1072 336.77382877096534 L 1080 336.77382877096534 L 1088 336.77382877096534 L 1096 336.77382877096534 L 1104 336.77382877096534 L 1112 336.77382877096534 L 1120 336.77382877096534" fill="none" stroke="rgba(255,255,255,0.18)" stroke-width="2.5"/><rect x="378.77432635240257" y="174.90796886384487" width="24" height="80" rx="4" fill="rgba(255,255,255,0.1)"/><rect x="350.77432635240257" y="202.90796886384487" width="80" height="24" rx="4" fill="rgba(255,255,255,0.1)"/><path d="M 976.7498686444014 227.25137880071998 C 976.7498686444014 212.25137880071998 941.7498686444014 177.25137880071998 941.7498686444014 192.25137880071998 C 941.7498686444014 207.25137880071998 976.7498686444014 222.25137880071998 976.7498686444014 242.25137880071998 C 976.7498686444014 222.25137880071998 1011.7498686444014 207.25137880071998 1011.7498686444014 192.25137880071998 C 1011.7498686444014 177.25137880071998 976.7498686444014 212.25137880071998 976.7498686444014 227.25137880071998 Z" fill="rgba(255,255,255,0.08)" stroke="rgba(255,255,255,0.15)" stroke-width="1.5"/><circle cx="229.5947341946885" cy="503.21252445690334" r="34.409059171332046" fill="none" stroke="rgba(255,255,255,0.10389914967119693)" stroke-width="1.5"/><circle cx="151.76061666570604" cy="472.7396094612777" r="19.560679607558995" fill="none" stroke="rgba(255,255,255,0.06196679098531604)" stroke-width="1.5"/><circle cx="473.2378648594022" cy="405.68936076015234" r="15.398149088025093" fill="none" stroke="rgba(255,255,255,0.09298028770834207)" stroke-width="1.5"/><circle cx="200.00393085647374" cy="484.49002559296787" r="25.659743615426123" fill="none" stroke="rgba(255,255,255,0.09367578871548177)" stroke-width="1.5"/>
  <circle cx="404.15485091507435" cy="242.6734653976746" r="2.013776727486402" fill="rgba(255,255,255,0.06672678247094155)"/><circle cx="234.59064401686192" cy="26.249523034784943" r="1.6019148915074766" fill="rgba(255,255,255,0.07135595607804135)"/><circle cx="553.592901583761" cy="10.237801792100072" r="1.2459984421730042" fill="rgba(255,255,255,0.034338325012940915)"/><circle cx="355.89928049594164" cy="310.29429072048515" r="1.9149497328326106" fill="rgba(255,255,255,0.05597896581282839)"/><circle cx="675.5366365425289" cy="252.2465497883968" r="1.283637366257608" fill="rgba(255,255,255,0.03660581291886046)"/><circle cx="946.6500973328948" cy="462.579097955022" r="2.0314595038071275" fill="rgba(255,255,255,0.07614814956439658)"/><circle cx="1062.6355393789709" cy="361.4904047269374" r="1.967244505416602" fill="rgba(255,255,255,0.04403072401881218)"/><circle cx="292.4475805833936" cy="129.8785688378848" r="1.9887559851631522" fill="rgba(255,255,255,0.04524856799514964)"/><circle cx="368.88831993564963" cy="474.36949046328664" r="2.9588098316453397" fill="rgba(255,255,255,0.0572461925749667)"/><circle cx="942.6528006792068" cy="197.88588589522988" r="1.4809173941612244" fill="rgba(255,255,255,0.07709101892076434)"/><circle cx="865.7184770330787" cy="515.1641104160808" r="2.555357588455081" fill="rgba(255,255,255,0.053982594814151526)"/><circle cx="1089.030092395842" cy="98.17968854214996" r="2.0765064572915435" fill="rgba(255,255,255,0.03381281595909968)"/>
  <text x="600" y="335" font-family="system-ui, -apple-system, 'Segoe UI', sans-serif" font-size="68" font-weight="700" fill="rgba(0,0,0,0.15)" text-anchor="middle" letter-spacing="1">USMLE Step 1</text>
  <text x="600" y="332" font-family="system-ui, -apple-system, 'Segoe UI', sans-serif" font-size="68" font-weight="700" fill="white" text-anchor="middle" letter-spacing="1">USMLE Step 1</text>
  <g transform="translate(1140, 575)">
    <rect x="0" y="0" width="40" height="40" rx="8" fill="rgba(255,255,255,0.15)"/>
    <text x="20" y="29" font-family="sans-serif" font-weight="bold" font-size="24" fill="rgba(255,255,255,0.6)" text-anchor="middle">K</text>
  </g>
</svg>